<svg width="22" height="22" viewBox="0 0 22 22" fill="none" xmlns="http://www.w3.org/2000/svg">
<path d="M19.5981 15.5036C18.2121 14.3321 17.4173 12.6198 17.4173 10.8057V8.25C17.4173 5.02425 15.0212 2.354 11.9173 1.90667V0.916667C11.9173 0.40975 11.5067 0 11.0007 0C10.4947 0 10.084 0.40975 10.084 0.916667V1.90667C6.97923 2.354 4.58398 5.02425 4.58398 8.25V10.8057C4.58398 12.6198 3.78923 14.3321 2.39498 15.5109C2.0384 15.8162 1.83398 16.2598 1.83398 16.7292C1.83398 17.6138 2.55357 18.3333 3.43815 18.3333H18.5632C19.4477 18.3333 20.1673 17.6138 20.1673 16.7292C20.1673 16.2598 19.9629 15.8162 19.5981 15.5036Z" fill="white"/>
<path d="M11.0006 22C12.6607 22 14.0495 20.8166 14.3685 19.25H7.63281C7.95181 20.8166 9.34056 22 11.0006 22Z" fill="white"/>
</svg>
