<svg width="21" height="21" viewBox="0 0 21 21" fill="none" xmlns="http://www.w3.org/2000/svg">
<path d="M17.4015 10.9647L18.588 12.0212C18.8071 12.2041 18.9535 12.4593 19.0007 12.7407C19.0479 13.0222 18.9928 13.3112 18.8453 13.5555L17.4146 15.9994C17.3036 16.1865 17.1452 16.3409 16.9553 16.447C16.7632 16.5533 16.5474 16.6097 16.3279 16.611C16.1917 16.6119 16.0562 16.5915 15.9263 16.5507L14.4077 16.0493C14.1417 16.2199 13.8652 16.3726 13.5782 16.5073L13.2593 18.0469C13.2002 18.3301 13.0426 18.5831 12.8143 18.7609C12.5832 18.9418 12.2967 19.0374 12.0032 19.0313H9.04089C8.74743 19.0374 8.46089 18.9418 8.22976 18.7609C8.00202 18.5829 7.84482 18.3299 7.78614 18.0469L7.46589 16.5073C7.18265 16.3708 6.90785 16.2174 6.64295 16.048L5.11914 16.5507C4.98921 16.5915 4.85371 16.6119 4.71752 16.611C4.4984 16.6095 4.28317 16.5531 4.09145 16.447C3.90172 16.3412 3.74325 16.1873 3.63208 16.0007L2.15027 13.5555C1.99621 13.309 1.93735 13.0148 1.98471 12.728C2.03207 12.4412 2.18239 12.1815 2.40752 11.9976L3.5927 10.5V10.0354L2.4062 8.97884C2.1871 8.796 2.0407 8.54076 1.99351 8.25931C1.94632 7.97787 2.00146 7.68883 2.14895 7.44453L3.63077 5.00065C3.74176 4.81358 3.90024 4.65917 4.09014 4.55309C4.28186 4.447 4.49709 4.3906 4.7162 4.38903C4.85117 4.38051 4.98665 4.39291 5.11783 4.42578L6.61145 4.95078C6.87833 4.78015 7.15483 4.62747 7.44095 4.49272L7.7612 2.95315C7.81988 2.67014 7.97708 2.41712 8.20483 2.23915C8.43595 2.05822 8.72249 1.96271 9.01595 1.96878H11.9533C12.2468 1.96271 12.5333 2.05822 12.7645 2.23915C12.9941 2.41897 13.1516 2.67228 13.2081 2.95315L13.5283 4.49272C13.8127 4.62834 14.087 4.78147 14.3513 4.95209L15.8764 4.45072C16.0457 4.39565 16.2245 4.37632 16.4016 4.39394C16.5788 4.41156 16.7503 4.46576 16.9054 4.55309C17.0957 4.66072 17.2532 4.81559 17.3648 4.99934L18.8453 7.44453C19.0014 7.68895 19.0632 7.98182 19.0193 8.26849C18.9753 8.55517 18.8286 8.81605 18.6064 9.00247L17.4015 10.0288V10.9647Z" fill="white"/>
<path d="M13.7812 10.5C13.7812 11.3702 13.4355 12.2048 12.8202 12.8202C12.2048 13.4355 11.3702 13.7812 10.5 13.7812C9.62976 13.7812 8.79516 13.4355 8.17981 12.8202C7.56445 12.2048 7.21875 11.3702 7.21875 10.5C7.21875 9.62976 7.56445 8.79516 8.17981 8.17981C8.79516 7.56445 9.62976 7.21875 10.5 7.21875C11.3702 7.21875 12.2048 7.56445 12.8202 8.17981C13.4355 8.79516 13.7812 9.62976 13.7812 10.5Z" stroke="#2E3A52"/>
</svg>
