<svg width="23" height="23" viewBox="0 0 23 23" fill="none" xmlns="http://www.w3.org/2000/svg">
<path fill-rule="evenodd" clip-rule="evenodd" d="M11.5492 1.19788H11.4495C10.588 1.19788 9.87018 1.19788 9.30093 1.27454C8.6991 1.35504 8.15572 1.53329 7.71968 1.96933C7.28268 2.40633 7.10443 2.94971 7.02393 3.55058C6.96931 3.95979 6.95302 4.93633 6.94918 5.77392C5.01143 5.83813 3.84706 6.06429 3.03918 6.87313C1.91602 7.99533 1.91602 9.80275 1.91602 13.4166C1.91602 17.0305 1.91602 18.8379 3.03918 19.9601C4.16235 21.0823 5.96881 21.0833 9.58268 21.0833H13.416C17.0299 21.0833 18.8373 21.0833 19.9595 19.9601C21.0817 18.837 21.0827 17.0305 21.0827 13.4166C21.0827 9.80275 21.0827 7.99533 19.9595 6.87313C19.1516 6.06429 17.9873 5.83813 16.0495 5.77488C16.0457 4.93633 16.0303 3.95979 15.9748 3.55154C15.8943 2.94971 15.716 2.40633 15.279 1.97029C14.843 1.53329 14.2996 1.35504 13.6978 1.27454C13.1285 1.19788 12.4098 1.19788 11.5492 1.19788ZM14.612 5.75188C14.6072 4.94017 14.5938 4.06713 14.5507 3.74225C14.4903 3.30046 14.3878 3.11071 14.2632 2.98613C14.1386 2.86154 13.9488 2.759 13.5061 2.69863C13.0442 2.63729 12.4232 2.63538 11.4993 2.63538C10.5755 2.63538 9.95452 2.63729 9.49164 2.69958C9.04985 2.759 8.8601 2.86154 8.73552 2.98708C8.61093 3.11263 8.50839 3.30046 8.44802 3.74225C8.40489 4.06808 8.39052 4.94017 8.38668 5.75188C8.76235 5.74996 9.16102 5.74932 9.58268 5.74996H13.416C13.839 5.74996 14.2376 5.7506 14.612 5.75188ZM11.4993 8.86454C11.69 8.86454 11.8728 8.94027 12.0076 9.07506C12.1424 9.20985 12.2181 9.39267 12.2181 9.58329V9.59288C13.2617 9.85546 14.1348 10.6787 14.1348 11.8191C14.1348 12.0097 14.059 12.1925 13.9242 12.3273C13.7895 12.4621 13.6066 12.5378 13.416 12.5378C13.2254 12.5378 13.0426 12.4621 12.9078 12.3273C12.773 12.1925 12.6973 12.0097 12.6973 11.8191C12.6973 11.4511 12.289 10.9413 11.4993 10.9413C10.7097 10.9413 10.3014 11.4511 10.3014 11.8191C10.3014 12.1871 10.7097 12.6979 11.4993 12.6979C12.8266 12.6979 14.1348 13.6179 14.1348 15.0142C14.1348 16.1546 13.2617 16.9768 12.2181 17.2404V17.25C12.2181 17.4406 12.1424 17.6234 12.0076 17.7582C11.8728 17.893 11.69 17.9687 11.4993 17.9687C11.3087 17.9687 11.1259 17.893 10.9911 17.7582C10.8563 17.6234 10.7806 17.4406 10.7806 17.25V17.2404C9.73697 16.9778 8.86393 16.1546 8.86393 15.0142C8.86393 14.8235 8.93966 14.6407 9.07445 14.5059C9.20924 14.3711 9.39206 14.2954 9.58268 14.2954C9.77331 14.2954 9.95612 14.3711 10.0909 14.5059C10.2257 14.6407 10.3014 14.8235 10.3014 15.0142C10.3014 15.3822 10.7097 15.892 11.4993 15.892C12.289 15.892 12.6973 15.3822 12.6973 15.0142C12.6973 14.6462 12.289 14.1354 11.4993 14.1354C10.1721 14.1354 8.86393 13.2154 8.86393 11.8191C8.86393 10.6787 9.73697 9.85546 10.7806 9.59288V9.58329C10.7806 9.39267 10.8563 9.20985 10.9911 9.07506C11.1259 8.94027 11.3087 8.86454 11.4993 8.86454Z" fill="white"/>
</svg>
