<svg width="21" height="21" viewBox="0 0 21 21" fill="none" xmlns="http://www.w3.org/2000/svg">
<g clip-path="url(#clip0_461_3502)">
<path d="M20.4644 8.21506L18.9333 7.90888C18.7649 7.35053 18.5416 6.81142 18.2666 6.29873L19.1326 4.9998C19.2953 4.75576 19.2631 4.43084 19.0557 4.2235L16.7355 1.90329C16.5281 1.69591 16.2032 1.66376 15.9592 1.82638L14.6602 2.69235C14.1476 2.41738 13.6085 2.19417 13.0501 2.02568L12.7439 0.494566C12.6864 0.207006 12.4339 0 12.1406 0H8.85938C8.56611 0 8.31358 0.207006 8.25608 0.494566L7.94989 2.02568C7.39151 2.19417 6.8524 2.41742 6.33974 2.69235L5.04074 1.82638C4.79678 1.66376 4.47181 1.69591 4.26444 1.90329L1.94426 4.2235C1.73685 4.43088 1.70469 4.7558 1.8674 4.9998L2.73336 6.29873C2.45835 6.81142 2.23515 7.35053 2.06665 7.90888L0.535582 8.21506C0.248021 8.27256 0.0410156 8.5251 0.0410156 8.81836V12.0996C0.0410156 12.3929 0.248021 12.6454 0.535623 12.7029L2.0667 13.0091C2.23515 13.5674 2.45839 14.1065 2.7334 14.6192L1.86744 15.9182C1.70473 16.1622 1.73693 16.4871 1.9443 16.6945L4.26448 19.0146C4.47189 19.2221 4.79678 19.2542 5.04078 19.0915L6.31317 18.2433V14.3811C5.34963 13.3555 4.75781 11.9776 4.75781 10.459C4.75781 7.28766 7.32867 4.7168 10.5 4.7168C13.6713 4.7168 16.2422 7.28766 16.2422 10.459C16.2422 11.9776 15.6504 13.3555 14.6868 14.3811V18.2433L15.9592 19.0915C16.0633 19.1609 16.1821 19.1949 16.3003 19.1949C16.459 19.1949 16.6166 19.1336 16.7355 19.0147L19.0557 16.6945C19.263 16.4871 19.2952 16.1622 19.1325 15.9182L18.2666 14.6192C18.5416 14.1065 18.7648 13.5674 18.9333 13.0091L20.4643 12.7029C20.752 12.6454 20.959 12.3929 20.959 12.0996V8.81836C20.959 8.5251 20.752 8.27256 20.4644 8.21506Z" fill="white"/>
<path d="M12.449 7.08796C12.1394 6.9086 11.7465 7.09891 11.6954 7.45304L11.3203 10.0488H9.67969L9.30464 7.45304C9.25345 7.09891 8.86065 6.9086 8.55102 7.08796C7.34971 7.78379 6.60352 9.07554 6.60352 10.459C6.60352 11.9582 7.44311 13.2993 8.79461 13.959L8.85938 13.9906V20.3848C8.85938 20.7246 9.13484 21 9.47461 21H11.5254C11.8652 21 12.1406 20.7246 12.1406 20.3848V13.9906L12.2054 13.959C13.5569 13.2993 14.3965 11.9582 14.3965 10.459C14.3965 9.07554 13.6503 7.78379 12.449 7.08796Z" fill="white"/>
</g>
<defs>
<clipPath id="clip0_461_3502">
<rect width="21" height="21" fill="white"/>
</clipPath>
</defs>
</svg>
