<svg width="14" height="14" viewBox="0 0 14 14" fill="none" xmlns="http://www.w3.org/2000/svg">
<path d="M7 2.43652C11.1555 2.43659 13.2682 5.50081 13.8955 6.60742C14.035 6.85351 14.0349 7.14646 13.8955 7.39258C13.2683 8.49913 11.1556 11.5644 7 11.5645C2.84429 11.5645 0.731721 8.49915 0.104492 7.39258C-0.0349885 7.14644 -0.0350204 6.85355 0.104492 6.60742C0.731858 5.50069 2.84453 2.43652 7 2.43652ZM7.00098 4.46484C5.60071 4.46495 4.46582 5.60068 4.46582 7.00098C4.46605 8.40107 5.60085 9.53603 7.00098 9.53613C8.40119 9.53613 9.53688 8.40114 9.53711 7.00098C9.53711 5.60062 8.40133 4.46484 7.00098 4.46484Z" fill="#018AFC"/>
</svg>
